<svg id="Capa_1" enable-background="new 0 0 512 512" height="512" viewBox="0 0 512 512" width="512" xmlns="http://www.w3.org/2000/svg"><g><path d="m337.01 236.6c3.89-3.89 3.89-10.24 0-14.14-3.93-3.9-10.22-3.91-14.15 0-3.89 3.9-3.89 10.25 0 14.14 3.93 3.91 10.22 3.91 14.15 0z"/><circle cx="202.655" cy="356.815" r="10.006"/><path d="m294.584 321.458c15.582-15.595 15.582-40.971 0-56.566-.002-.002-.004-.004-.006-.006-15.596-15.581-40.971-15.583-56.572.006-15.582 15.595-15.582 40.971.006 56.572 15.594 15.581 40.97 15.583 56.572-.006zm-42.436-42.424c7.794-7.788 20.483-7.798 28.287-.006 7.794 7.801 7.794 20.494.006 28.288-7.801 7.794-20.492 7.794-28.287.006-7.794-7.801-7.794-20.493-.006-28.288z"/><circle cx="256" cy="502" r="10"/><path d="m46 512h165c5.522 0 10-4.477 10-10s-4.478-10-10-10h-149.47l20.909-46h110.408l23.951 23.951c1.953 1.953 4.512 2.929 7.071 2.929s5.118-.976 7.071-2.929l23.953-23.951h174.668l20.909 46h-149.47c-5.522 0-10 4.477-10 10s4.478 10 10 10h165c3.4 0 6.567-1.728 8.408-4.586 1.84-2.859 2.103-6.457.695-9.552l-30-66c-1.623-3.57-5.181-5.862-9.103-5.862h-161.107l168.179-168.179c3.905-3.905 3.905-10.237 0-14.143l-77.959-77.96c1.902-1.839 3.849-3.703 5.77-5.542 47.16-45.103 68.087-104.027 68.087-150.176 0-5.523-4.478-10-10-10h-94.93c-4.265 0-8.061 2.705-9.452 6.736-6.844 19.819-21.773 41.407-42.057 60.803-39.077 37.402-68.451 71.278-72.985 140.962l-120.027 120.028c-1.875 1.875-2.929 4.419-2.929 7.071s1.054 5.196 2.929 7.071l83.328 83.329h-96.847c-3.922 0-7.48 2.292-9.104 5.862l-30 66c-1.407 3.095-1.145 6.693.695 9.552 1.842 2.858 5.009 4.586 8.409 4.586zm250.371-430.022c12.079-11.551 33.094-34.281 44.563-61.988h77.59c-1.94 23.829-11.966 78.393-61.468 125.736-9.309 8.91-23.024 21.569-29.134 32.92-5.218 9.711-17.326 13.391-27.094 8.118-9.724-5.232-13.364-17.337-8.11-27.087 8.434-15.686 23.716-30.455 36.691-42.857 3.993-3.816 4.136-10.146.319-14.139-3.815-3.992-10.146-4.135-14.138-.319-.116.11-83.053 83.149-83.16 83.256 9.514-51.543 37.115-77.963 63.941-103.64zm-25.544 93.527c1.995 12.277 9.382 22.877 20.511 28.863 19.457 10.512 43.728 3.233 54.198-16.249 1.308-2.43 3.118-5.003 5.669-8.022l70.652 70.652-197.987 197.989-113.138-113.138z"/></g></svg>